PathFileType	4	(X/Y/Z)	C:/Users/beibeiliu/ov580/test_trc/capture2\sequence.5_training_dense_right.trc
DataRate	CameraRate	NumFrames	NumMarkers	Units	OrigDataRate	OrigDataStartFrame	OrigNumFrames
120	120	16	19	mm	120	1	350
Frame#	Time	ThumbCMC			ThumbMCP			ThumbIP			ThumbTip			IndexMCP			IndexPIP			IndexTip			MiddleMCP			MiddlePIP			MiddleTip			RingMCP			RingPIP			RingTip			PinkyMCP			PinkyPIP			PinkyTip			BackHand1			BackHand2			BackHand3	
		X0	Y0	Z0	X1	Y1	Z1	X2	Y2	Z2	X3	Y3	Z3	X4	Y4	Z4	X5	Y5	Z5	X6	Y6	Z6	X7	Y7	Z7	X8	Y8	Z8	X9	Y9	Z9	X10	Y10	Z10	X11	Y11	Z11	X12	Y12	Z12	X13	Y13	Z13	X14	Y14	Z14	X15	Y15	Z15	X16	Y16	Z16	X17	Y17	Z17	X18	Y18	Z18	
0	0	117.078	27.0356	-14.0336	93.503	15.7541	-32.0751	80.3467	9.63669	-55.543	70.3062	5.05704	-74.1575	132.025	39.1448	-86.558	127.665	36.7898	-113.897	124.471	40.4772	-133.368	162.285	37.0814	-90.4839	161.936	34.9161	-115.822	169.524	34.3412	-143.402	179.684	28.2046	-85.46	185.883	25.1976	-109.539	194.503	23.3986	-134.898	196.654	17.0484	-71.4319	207.912	12.1978	-89.444	222.189	13.1451	-105.36	175.717	38.8699	-35.9746	173.049	43.9089	-5.17403	144.192	47.2742	-22.7527	
1	0.00833333	114.495	27.6726	-18.9678	97.6056	15.5609	-31.4916	81.9953	10.2323	-57.3857	68.2891	5.48205	-71.9845	131.506	39.1926	-86.4093	125.193	39.2995	-112.798	127.66	41.6653	-136.99	158.033	38.1715	-89.7539	161.463	36.0305	-119.828	169.061	35.9508	-145.314	177.217	29.6204	-87.8534	189.111	24.9309	-105.68	192.612	24.3065	-134.351	195.252	17.6878	-70.5826	208.094	13.2263	-90.3305	218.98	13.9516	-110.37	174.68	39.1469	-35.7749	172.471	43.6022	-5.48285	143.222	48.9846	-25.9486	
2	0.0166667	113.475	28.2549	-13.506	98.1278	15.5407	-34.0937	81.2129	11.1036	-56.7018	71.8727	6.73884	-74.5896	132.228	39.4461	-86.6005	125.11	39.0072	-108.716	128.914	41.7399	-133.385	159.189	38.3446	-94.4427	161.693	36.158	-118.987	170.304	35.4847	-146.275	180.155	29.2781	-85.5055	185.44	25.7966	-105.832	193.39	23.4869	-132.66	196.145	18.9568	-71.4094	207.354	12.1585	-87.4737	218.581	13.7152	-105.916	175.89	39.2854	-36.3848	175.915	43.9692	-7.59569	145.398	49.3422	-24.0055	
3	0.025	113.269	28.8449	-16.2919	96.6592	16.8155	-31.3802	82.8452	12.1457	-58.2431	70.4814	7.45934	-75.2227	130.885	40.5499	-84.3495	125.816	39.8624	-112.721	130.793	42.8619	-134.688	163.631	38.6796	-91.4444	166.621	36.122	-119.153	173.183	34.6317	-143.859	179.526	31.4581	-87.0527	188.023	27.3083	-109.325	192.629	24.4785	-133.33	196.293	19.4581	-70.0321	206.01	13.1789	-85.8584	221.7	13.9152	-108.895	173.986	42.1275	-36.4335	174.583	42.775	-4.58223	142.477	49.3047	-27.4044	
4	0.0333333	113.254	30.6904	-17.306	98.7449	17.882	-32.3037	83.4908	13.7931	-56.5591	72.3346	8.70263	-76.0015	133.25	42.4095	-87.811	126.876	41.9654	-109.203	132.118	43.5723	-133.723	159.484	40.8664	-88.3865	165.347	37.2568	-119.025	170.845	37.0989	-142.281	178.769	31.3279	-82.1222	185.76	28.4954	-110.208	193.638	26.7972	-134.548	197.584	19.4542	-67.1766	208.432	14.9166	-90.3033	221.683	13.6505	-109.604	175.085	42.181	-32.9031	178.548	45.1301	-4.27491	148.351	49.6301	-22.7904	
5	0.0416667	114.472	30.3912	-18.3584	100.95	17.8426	-33.1075	86.2029	13.2715	-52.7796	74.3335	9.23524	-72.9192	131.116	42.5276	-86.1166	131.788	41.9958	-112.07	127.091	46.2867	-136.354	162.661	40.6497	-88.3714	168.097	38.0707	-115.179	170.841	37.2659	-140.888	178.963	32.1772	-85.8771	188.994	28.6826	-106.568	191.414	26.2047	-131.099	200.2	19.4808	-70.4626	205.996	15.4066	-87.6484	223.984	14.9945	-110.281	180.021	40.6293	-35.3767	176.564	44.1626	-7.36113	148.976	49.7033	-26.7793	
6	0.05	116.556	29.5086	-17.856	96.9933	19.2035	-31.9466	80.9457	14.4566	-55.5465	70.354	9.06152	-72.2478	132.504	42.6647	-86.8811	126.759	43.2372	-112.448	132.701	45.7373	-135.808	160.172	41.7628	-90.3971	165.663	38.3227	-116.13	171.814	37.3001	-143.263	182.982	32.0989	-85.5919	189.931	28.4405	-107.139	194.875	26.3613	-131.077	196.782	19.958	-69.0823	210.134	13.5775	-89.3977	223.565	14.1635	-111.479	176.377	42.4963	-33.3796	174.012	44.2544	-5.71346	146.539	49.4395	-26.6387	
7	0.0583333	114.948	29.6433	-13.9612	97.0963	18.8502	-32.6598	81.9834	14.0163	-54.851	70.033	9.62761	-74.4842	130.566	43.888	-87.3472	129.992	42.609	-114.761	130.673	47.2856	-138.467	162.177	40.3759	-92.3567	165.874	37.7262	-118.001	175.263	37.2899	-146.933	183.279	31.1088	-86.5934	190.776	28.0811	-108.681	191.816	27.4881	-131.85	196.681	20.2197	-68.1683	206.011	14.8611	-87.3536	223.139	15.5024	-108.622	176.046	43.5802	-38.1549	174.479	45.0745	-4.22096	143.93	50.7514	-24.1809	
8	0.0666667	117.396	29.1038	-19.1348	96.9216	18.3658	-32.3484	83.8575	13.7299	-53.2661	70.6003	8.79693	-72.4459	132.34	43.1021	-88.8019	128.579	43.8708	-112.883	131.939	46.6028	-133.836	162.381	40.5444	-91.1477	166.623	36.9674	-120.271	170.738	36.2759	-141.715	179.175	32.2971	-83.3521	186.457	28.1059	-106.521	193.461	27.0501	-134.575	198.117	19.9786	-69.8773	205.284	14.2279	-90.5259	222.25	12.8121	-106.18	179.985	42.7158	-36.3224	177.718	43.8103	-7.20039	147.177	49.2453	-23.2506	
9	0.075	114.463	30.485	-13.5376	95.8867	17.763	-32.1597	81.9421	13.9281	-52.6022	70.2051	9.14054	-74.2252	133.775	43.4733	-87.9014	126.289	42.8844	-108.629	129.803	46.4367	-135.98	158.654	41.6735	-93.469	164.736	37.0192	-119.493	168.312	36.8566	-142.121	179.455	31.5989	-82.8936	184.522	27.6363	-106.072	190.563	26.1837	-132.37	199.43	18.9198	-69.0689	205.562	13.8886	-89.0889	217.655	15.1869	-108.592	173.913	40.7759	-33.6152	177.036	42.6495	-7.68024	148.759	50.5748	-21.7561	
10	0.0833333	116.808	29.9344	-16.8281	93.8113	18.5664	-34.2682	79.0475	12.4463	-54.4075	71.2879	6.90626	-76.0065	131.078	43.4524	-84.0725	125.33	43.349	-112.604	131.927	46.3781	-133.384	160.251	40.15	-92.3871	166.041	37.1466	-115.475	169.641	35.4664	-142.535	181.061	31.5133	-86.3365	185.883	28.1132	-106.877	190.785	25.8626	-132.456	199.316	18.0887	-69.3563	204.686	13.8061	-89.4431	218.818	14.4859	-112.082	173.85	41.2135	-32.0868	175.383	44.6252	-3.98701	146.938	48.2093	-21.581	
11	0.0916667	114.889	29.3767	-13.1092	99.2262	17.7501	-33.489	80.9213	12.3753	-58.94	69.458	7.40704	-78.286	128.895	43.6451	-87.0969	127.438	43.6529	-112.498	129.049	47.2197	-136.47	156.937	41.0132	-90.0127	164.216	37.8091	-117.852	166.222	36.9151	-144.054	179.847	32.585	-86.0892	186.374	27.8505	-107.191	189.381	25.2568	-135.447	195.154	20.5003	-74.2256	206.247	14.3499	-92.5801	219.166	12.9841	-111.128	176.126	41.5638	-37.5317	174.365	44.0639	-6.13042	142.884	49.3036	-26.4272	
12	0.1	112.372	29.975	-14.5215	97.8316	17.6117	-34.2315	82.514	12.3407	-54.3853	71.2681	8.41121	-74.822	128.223	45.6215	-89.1271	127.768	44.0713	-112.428	126.186	47.0409	-132.438	157.214	41.7497	-95.0552	165.741	36.0688	-120.175	168.724	34.8488	-144.218	178.464	32.3153	-87.6555	187.707	27.0941	-110.553	187.634	25.9526	-135.478	197.331	20.1586	-73.1301	203.512	14.4636	-91.9337	215.552	13.1392	-112.491	174.463	43.6028	-36.2987	173.915	42.7681	-6.93294	143.416	51.3915	-22.7351	
13	0.108333	116.528	29.4518	-18.049	96.7246	17.0882	-35.3032	83.8459	12.9522	-56.9308	71.3826	7.9078	-73.8791	132.318	44.5033	-86.9953	129.265	44.8725	-112.682	127.895	48.9912	-138.483	161.758	41.0938	-90.4998	165.077	37.1516	-116.711	169.951	34.9574	-147.081	181.452	31.7318	-88.668	181.822	28.2104	-109.476	189.299	25.0221	-132.208	197.877	19.4868	-69.9555	205.6	12.8068	-93.2362	213.653	12.9916	-110.753	173.98	42.6935	-33.6272	174.528	43.3597	-8.36749	143.031	51.8365	-23.0384	
14	0.116667	114.632	29.1145	-17.9563	93.9421	17.0603	-32.8971	82.5481	12.5766	-56.3722	69.6045	8.24962	-79.1093	129.62	46.5766	-90.0932	128.964	44.8238	-114.962	126.87	48.5221	-135.76	157.292	41.3608	-92.8917	165.042	36.6877	-116.1	167.97	34.0982	-146.248	181.695	31.7573	-86.9386	185.446	28.1049	-112.657	188.361	24.6154	-137.546	196.108	19.4027	-70.9098	206.982	13.1186	-89.3243	216.379	11.5962	-114.27	177.413	41.567	-34.8345	172.792	44.0772	-6.34961	144.056	49.5098	-26.483	
15	0.125	113.043	29.702	-17.4441	96.2937	16.4945	-33.5838	81.4263	12.5788	-55.1138	72.0545	8.0737	-75.2893	129.102	47.1091	-87.8377	125.98	45.9676	-113.788	125.839	49.7838	-135.222	158.474	41.0555	-94.0834	160.488	36.6832	-120.218	164.599	33.3304	-144.63	176.822	33.4183	-87.9093	187.21	28.1602	-107.472	189.548	23.671	-135.512	196.646	19.9272	-71.2303	205.196	12.6561	-90.4944	213.931	10.1662	-113.98	178.821	42.4432	-32.7358	177.059	43.4985	-7.20278	144.408	48.9733	-21.7632	
